<svg xmlns="http://www.w3.org/2000/svg" viewBox="0 0 512 512">
  <defs>
    <radialGradient id="bg" cx="50%" cy="38%" r="78%">
      <stop offset="0" stop-color="#3a2019"/>
      <stop offset="0.55" stop-color="#171214"/>
      <stop offset="1" stop-color="#08090c"/>
    </radialGradient>
    <linearGradient id="rice" x1="0" y1="0" x2="0" y2="1">
      <stop offset="0" stop-color="#fff9e9"/>
      <stop offset="1" stop-color="#d9ccb5"/>
    </linearGradient>
    <linearGradient id="toro" x1="0" y1="0" x2="1" y2="1">
      <stop offset="0" stop-color="#ffb2b2"/>
      <stop offset="0.28" stop-color="#ff8c8f"/>
      <stop offset="0.58" stop-color="#f56f78"/>
      <stop offset="1" stop-color="#c94555"/>
    </linearGradient>
    <linearGradient id="shine" x1="0" y1="0" x2="1" y2="1">
      <stop offset="0" stop-color="#fff" stop-opacity=".72"/>
      <stop offset="1" stop-color="#fff" stop-opacity="0"/>
    </linearGradient>
    <filter id="shadow" x="-30%" y="-30%" width="160%" height="180%">
      <feGaussianBlur in="SourceAlpha" stdDeviation="16" result="blur"/>
      <feOffset dy="20" result="off"/>
      <feColorMatrix in="off" type="matrix" values="0 0 0 0 0  0 0 0 0 0  0 0 0 0 0  0 0 0 .55 0"/>
      <feBlend in="SourceGraphic"/>
    </filter>
    <clipPath id="round"><rect width="512" height="512" rx="112"/></clipPath>
    <clipPath id="fishClip"><path d="M86 205C121 128 202 91 302 101c71 7 125 43 144 95 7 19 2 40-15 53-33 25-78 42-135 50-74 10-145 0-204-28-20-9-27-41-6-66Z"/></clipPath>
  </defs>
  <g clip-path="url(#round)">
    <rect width="512" height="512" fill="url(#bg)"/>
    <ellipse cx="258" cy="408" rx="172" ry="42" fill="#000" opacity=".42"/>
    <g filter="url(#shadow)">
      <path d="M129 270c24-31 69-49 126-49 60 0 107 18 131 50 13 17 9 49-9 68-27 28-69 43-122 43-52 0-94-15-121-43-19-20-22-49-5-69Z" fill="url(#rice)"/>
      <g fill="#fff7e5" opacity=".82">
        <ellipse cx="173" cy="304" rx="18" ry="8" transform="rotate(-18 173 304)"/>
        <ellipse cx="214" cy="287" rx="20" ry="8" transform="rotate(12 214 287)"/>
        <ellipse cx="260" cy="315" rx="19" ry="8" transform="rotate(-7 260 315)"/>
        <ellipse cx="306" cy="290" rx="18" ry="8" transform="rotate(16 306 290)"/>
        <ellipse cx="346" cy="316" rx="17" ry="8" transform="rotate(-14 346 316)"/>
        <ellipse cx="206" cy="344" rx="18" ry="8" transform="rotate(9 206 344)"/>
        <ellipse cx="291" cy="349" rx="19" ry="8" transform="rotate(-10 291 349)"/>
      </g>
      <path d="M86 205C121 128 202 91 302 101c71 7 125 43 144 95 7 19 2 40-15 53-33 25-78 42-135 50-74 10-145 0-204-28-20-9-27-41-6-66Z" fill="url(#toro)"/>
      <g clip-path="url(#fishClip)" fill="none" stroke="#ffe2dc" stroke-linecap="round">
        <path d="M122 184c47 20 82 60 102 111" stroke-width="11" opacity=".78"/>
        <path d="M171 137c40 29 69 75 82 137" stroke-width="9" opacity=".68"/>
        <path d="M229 115c31 35 52 83 58 150" stroke-width="10" opacity=".72"/>
        <path d="M292 108c17 43 24 91 19 145" stroke-width="9" opacity=".62"/>
        <path d="M352 127c-1 40-10 78-28 116" stroke-width="8" opacity=".58"/>
        <path d="M407 164c-17 31-41 59-72 83" stroke-width="7" opacity=".52"/>
        <path d="M105 222c72-28 166-36 319-12" stroke-width="5" opacity=".32"/>
        <path d="M113 250c89-22 187-24 301-7" stroke-width="4" opacity=".28"/>
      </g>
      <path d="M117 187c28-46 81-72 145-78 47-4 93 4 128 24-68-12-140-3-208 30-24 12-45 28-65 46-8 8-9-10 0-22Z" fill="url(#shine)" opacity=".38"/>
    </g>
    <circle cx="421" cy="92" r="24" fill="#fff" opacity=".08"/>
  </g>
</svg>
